<?xml version="1.0" encoding="UTF-8" standalone="no"?>
<!-- Created with Inkscape (http://www.inkscape.org/) -->

<svg
   width="94.527023mm"
   height="78.936577mm"
   viewBox="0 0 94.527023 78.936577"
   version="1.1"
   id="svg5"
   xml:space="preserve"
   xmlns="http://www.w3.org/2000/svg"
   xmlns:svg="http://www.w3.org/2000/svg"><defs
     id="defs2" /><g
     id="layer1"
     transform="translate(-55.289992,-111.43539)"><g
       id="g2737"><g
         id="g575"
         transform="matrix(0.94527027,0,0,0.68230184,4.2453975,97.107051)"><path
           style="fill:#aa0000;stroke-width:0.129171"
           d="M 54,51 V 21 h 50 50 V 51 81 H 104 54 Z"
           id="path309-7" /><rect
           style="fill:#550000;stroke-width:0.264583"
           id="rect365-9"
           width="98"
           height="58"
           x="55"
           y="22"
           ry="0" /></g><g
         id="g483"
         transform="matrix(0.94527027,0,0,0.6463108,55.289992,151.55133)"><path
           style="fill:#aa0000;stroke-width:0.129171"
           d="M 0,30 V 0 H 49.999997 100 V 30 60 H 49.999997 0 Z"
           id="path309" /><rect
           style="fill:#ff0000;stroke-width:0.264583"
           id="rect365"
           width="98"
           height="58"
           x="1"
           y="1"
           ry="0" /></g><g
         id="g571"
         transform="matrix(0.94527027,0,0,0.64846081,4.2453975,99.656088)"><path
           style="fill:#ffd42a;stroke-width:0.057767"
           d="M 95,109.89416 V 79.894157 h 10 10 v 30.000003 30 H 105 95 Z"
           id="path309-9" /><rect
           style="fill:#ffe680;stroke-width:0.113392"
           id="rect365-7"
           width="18"
           height="58"
           x="96"
           y="80.894157"
           ry="0" /></g></g></g></svg>
